#!OML:ASF H:\Pregnant\Project 1\Capture day 1\Session 1\femalepreg.ASF
:FULLY-SPECIFIED
:DEGREES
403
root -6.54974 15.7683 -7.5144 -162.654 4.74232 -179.686
lowerback -16.3016 1.55577 9.56484
upperback -1.45208 0.610881 4.24381
thorax 7.61983 0.795587 -0.657885
lowerneck -16.8213 -7.44423 -1.03244
upperneck 30.2157 -12.0115 12.2296
head 14.0767 -2.74393 3.23889
rclavicle -9.34288e-015 2.38542e-014
rhumerus -10.9733 14.4541 -85.2746
rradius 27.9713
rwrist -4.78714
rhand -22.7049 -19.9549
rfingers 7.12502
rthumb 3.72808 -49.902
lclavicle -9.34288e-015 2.38542e-014
lhumerus -42.1426 -23.3367 97.4283
lradius 36.0885
lwrist 12.845
lhand -18.2792 -13.3394
lfingers 7.12502
lthumb 8.00087 16.4892
rfemur -33.4242 16.4569 27.3398
rtibia 40.3303
rfoot -18.4121 -10.413
rtoes -5.71933
lfemur -48.1261 -9.95935 -16.6214
ltibia 40.0099
lfoot -9.31131 12.8551
ltoes -21.458
404
root -6.53315 15.7721 -7.60579 -162.574 5.19287 -179.707
lowerback -16.3131 1.58971 9.48093
upperback -1.40935 0.655309 4.18928
thorax 7.67757 0.811898 -0.658948
lowerneck -16.7369 -7.43424 -1.07478
upperneck 30.2584 -12.0031 12.3255
head 14.0888 -2.72959 3.2918
rclavicle -9.93923e-015 -5.56597e-014
rhumerus -11.0681 14.4374 -85.4637
rradius 28.2582
rwrist -5.26267
rhand -22.3701 -19.6923
rfingers 7.12502
rthumb 4.05143 -49.6335
lclavicle -9.93923e-015 -5.56597e-014
lhumerus -41.7012 -23.0926 96.9198
lradius 36.2034
lwrist 12.2631
lhand -18.7978 -13.7155
lfingers 7.12502
lthumb 7.50028 16.1315
rfemur -33.0127 16.64 27.3714
rtibia 40.1108
rfoot -18.5739 -10.2375
rtoes -5.72573
lfemur -48.4656 -10.2646 -16.2721
ltibia 38.2024
lfoot -8.8007 12.808
ltoes -21.705
405
root -6.51611 15.7752 -7.69871 -162.5 5.64946 -179.713
lowerback -16.3316 1.62466 9.40997
upperback -1.36162 0.697571 4.13397
thorax 7.74455 0.827972 -0.668094
lowerneck -16.6762 -7.4245 -1.11719
upperneck 30.3207 -11.9963 12.4129
head 14.1142 -2.71496 3.34153
rclavicle -1.09332e-014 -4.77083e-014
rhumerus -11.2106 14.4805 -85.6599
rradius 28.5872
rwrist -5.73211
rhand -22.0346 -19.3868
rfingers 7.12502
rthumb 4.37535 -49.3216
lclavicle -1.09332e-014 -4.77083e-014
lhumerus -41.2695 -22.825 96.4033
lradius 36.3079
lwrist 11.9757
lhand -19.3526 -13.889
lfingers 7.12502
lthumb 6.9648 15.9764
rfemur -32.5793 16.8298 27.4193
rtibia 39.8756
rfoot -18.7554 -10.0195
rtoes -5.7264
lfemur -48.764 -10.5788 -15.8842
ltibia 36.3794
lfoot -8.33258 12.6782
ltoes -21.9756
406
root -6.49864 15.7776 -7.79288 -162.43 6.10922 -179.718
lowerback -16.3565 1.65522 9.33643
upperback -1.31484 0.73391 4.07429
thorax 7.81366 0.841067 -0.681715
lowerneck -16.6816 -7.41324 -1.13399
upperneck 30.455 -11.9902 12.4528
head 14.1802 -2.69599 3.3699
rclavicle 1.39149e-015 2.70347e-014
rhumerus -11.409 14.5781 -85.8669
rradius 28.9598
rwrist -6.1704
rhand -21.7011 -19.0886
rfingers 7.12502
rthumb 4.69741 -49.0166
lclavicle 1.39149e-015 2.70347e-014
lhumerus -40.855 -22.5213 95.8777
lradius 36.4092
lwrist 12.0085
lhand -19.9052 -13.8633
lfingers 7.12502
lthumb 6.43135 16.0191
rfemur -32.1316 17.0247 27.4646
rtibia 39.6268
rfoot -18.9314 -9.79458
rtoes -5.70953
lfemur -49.0323 -10.9033 -15.4774
ltibia 34.5526
lfoot -7.902 12.4687
ltoes -22.3124
407
root -6.48093 15.7793 -7.88808 -162.36 6.57522 -179.708
lowerback -16.3859 1.68795 9.27971
upperback -1.27082 0.770582 4.00921
thorax 7.88244 0.854998 -0.710353
lowerneck -16.7273 -7.39384 -1.11882
upperneck 30.635 -11.9763 12.4574
head 14.2697 -2.66945 3.38151
rclavicle 7.95139e-015 -7.4743e-014
rhumerus -11.6543 14.7485 -86.0872
rradius 29.3643
rwrist -6.59399
rhand -21.3744 -18.8006
rfingers 7.12502
rthumb 5.01285 -48.7213
lclavicle 7.95139e-015 -7.4743e-014
lhumerus -40.4614 -22.1914 95.3416
lradius 36.5176
lwrist 12.3921
lhand -20.5094 -13.7183
lfingers 7.12502
lthumb 5.84799 16.181
rfemur -31.6743 17.22 27.5233
rtibia 39.365
rfoot -19.0909 -9.57231
rtoes -5.71279
lfemur -49.2844 -11.2164 -15.0444
ltibia 32.7393
lfoot -7.49324 12.1699
ltoes -22.7369
408
root -6.46289 15.7803 -7.98393 -162.286 7.04653 -179.687
lowerback -16.4232 1.71888 9.23185
upperback -1.22784 0.802963 3.94233
thorax 7.95428 0.867398 -0.746605
lowerneck -16.7772 -7.37021 -1.10111
upperneck 30.8195 -11.957 12.4588
head 14.3615 -2.64045 3.39268
rclavicle -3.04141e-014 -5.40694e-014
rhumerus -11.9333 14.9843 -86.315
rradius 29.7874
rwrist -6.9788
rhand -21.0737 -18.5279
rfingers 7.12502
rthumb 5.30315 -48.4415
lclavicle -3.04141e-014 -5.40694e-014
lhumerus -40.0776 -21.8227 94.7938
lradius 36.6329
lwrist 13.1255
lhand -21.1752 -13.4838
lfingers 7.12502
lthumb 5.20519 16.4323
rfemur -31.2111 17.4147 27.5911
rtibia 39.093
rfoot -19.2383 -9.33325
rtoes -5.7004
lfemur -49.5264 -11.5213 -14.5883
ltibia 30.9445
lfoot -7.09541 11.7904
ltoes -23.256
409
root -6.44443 15.7808 -8.08041 -162.204 7.52215 -179.656
lowerback -16.4717 1.75326 9.19938
upperback -1.18494 0.836228 3.86403
thorax 8.03275 0.880955 -0.80322
lowerneck -16.8526 -7.3535 -1.04671
upperneck 31.0163 -11.9525 12.4233
head 14.4605 -2.61712 3.37964
rclavicle 2.38542e-015 1.01778e-013
rhumerus -12.2351 15.2729 -86.5595
rradius 30.213
rwrist -7.32545
rhand -20.7929 -18.2356
rfingers 7.12502
rthumb 5.5743 -48.1423
lclavicle 2.38542e-015 1.01778e-013
lhumerus -39.7108 -21.4393 94.2294
lradius 36.7667
lwrist 14.216
lhand -21.8234 -13.1554
lfingers 7.12502
lthumb 4.57928 16.7751
rfemur -30.7434 17.6076 27.6672
rtibia 38.81
rfoot -19.3918 -9.0742
rtoes -5.71883
lfemur -49.7643 -11.7996 -14.1212
ltibia 29.1794
lfoot -6.70362 11.3191
ltoes -23.8373
410
root -6.42592 15.781 -8.17723 -162.124 8.00363 -179.626
lowerback -16.5223 1.78376 9.16595
upperback -1.14067 0.864209 3.78199
thorax 8.11359 0.891957 -0.864513
lowerneck -16.902 -7.32462 -0.993615
upperneck 31.1804 -11.9307 12.3995
head 14.5387 -2.58915 3.37339
rclavicle -4.07509e-014 2.54444e-014
rhumerus -12.5512 15.622 -86.8067
rradius 30.6281
rwrist -7.62454
rhand -20.5473 -17.9587
rfingers 7.12502
rthumb 5.81138 -47.859
lclavicle -4.07509e-014 2.54444e-014
lhumerus -39.3551 -21.0265 93.6642
lradius 36.909
lwrist 15.6339
lhand -22.4323 -12.7219
lfingers 7.12502
lthumb 3.99136 17.2205
rfemur -30.2655 17.7906 27.7395
rtibia 38.5157
rfoot -19.5259 -8.82161
rtoes -5.7141
lfemur -49.9886 -12.0764 -13.6469
ltibia 27.4455
lfoot -6.31437 10.7832
ltoes -24.4417
411
root -6.40738 15.7809 -8.27474 -162.05 8.50059 -179.587
lowerback -16.568 1.8151 9.13935
upperback -1.09183 0.892255 3.69908
thorax 8.19703 0.903348 -0.930538
lowerneck -16.9448 -7.28504 -0.945966
upperneck 31.3221 -11.8949 12.3867
head 14.6056 -2.55717 3.37399
rclavicle -1.11319e-014 3.18055e-015
rhumerus -12.8827 16.0115 -87.0531
rradius 31.0298
rwrist -7.86235
rhand -20.3363 -17.6641
rfingers 7.12502
rthumb 6.01513 -47.5588
lclavicle -1.11319e-014 3.18055e-015
lhumerus -39.0145 -20.5839 93.1017
lradius 37.0651
lwrist 17.3501
lhand -22.9888 -12.2019
lfingers 7.12502
lthumb 3.45388 17.7498
rfemur -29.7673 17.9677 27.8167
rtibia 38.209
rfoot -19.6568 -8.54885
rtoes -5.70215
lfemur -50.1908 -12.3432 -13.1608
ltibia 25.7493
lfoot -5.92207 10.2006
ltoes -25.0676
